<svg width="200" height="200" viewBox="0 0 200 200" fill="none" xmlns="http://www.w3.org/2000/svg">
<circle cx="100" cy="100" r="100" fill="#B0D6F5"/>
<g clip-path="url(#clip0)">
<path d="M80.9597 47C76.4052 47 72.1049 50.2228 68.8508 56.0744C65.9253 61.3351 64.2477 68.0439 64.2477 74.4811C64.2477 81.0668 67.6768 87.0614 73.1969 90.1259C75.0957 91.1799 76.2146 93.1406 76.1168 95.2429L75.6575 105.127C75.6126 106.091 76.358 106.909 77.3223 106.954C78.2881 106.992 79.1048 106.254 79.1496 105.289L79.6089 95.4053C79.7688 91.9667 77.962 88.7725 74.8938 87.0693C70.4836 84.621 67.7438 79.7975 67.7438 74.4811C67.7438 68.6203 69.261 62.5307 71.9062 57.7735C74.4782 53.1485 77.7779 50.4959 80.9597 50.4959C84.1416 50.4959 87.4415 53.1485 90.0133 57.7735C92.6587 62.5307 94.1757 68.6203 94.1757 74.4811C94.1757 79.7975 91.4359 84.621 87.0257 87.0693C83.9575 88.7725 82.1509 91.9667 82.3106 95.4053L85.2214 158.04C85.2761 159.216 84.8586 160.333 84.0456 161.184C83.2328 162.036 82.1367 162.504 80.9595 162.504C79.7821 162.504 78.6862 162.036 77.8734 161.184C77.0606 160.333 76.643 159.216 76.6976 158.04L78.8245 112.274C78.8693 111.31 78.124 110.492 77.1596 110.447C76.1986 110.41 75.3772 111.147 75.3326 112.112L73.2057 157.878C73.1062 160.017 73.8658 162.049 75.3447 163.598C76.8236 165.147 78.8175 166 80.9595 166C83.1015 166 85.0955 165.147 86.5744 163.598C88.0533 162.049 88.8128 160.017 88.7133 157.878L85.8025 95.2431C85.7049 93.1406 86.8237 91.1799 88.7224 90.1259C94.2424 87.0616 97.6716 81.0668 97.6716 74.4811C97.6716 68.0442 95.9937 61.3351 93.0685 56.0744C89.8146 50.2228 85.5143 47 80.9597 47V47Z" fill="#0463CA"/>
<path d="M128.443 90.1984C133.796 87.272 137.049 81.4491 136.731 75.3631L135.474 51.3351C135.347 48.9042 133.341 47 130.907 47C129.665 47 128.504 47.4888 127.636 48.3762C126.768 49.264 126.305 50.4364 126.334 51.6777L126.804 72.4739C126.812 72.7937 126.652 73.0061 126.556 73.1042C126.46 73.2023 126.251 73.3671 125.931 73.3671C125.454 73.3671 125.063 72.9792 125.058 72.5025L124.843 51.1122C124.819 48.845 122.956 47 120.688 47C118.42 47 116.557 48.845 116.534 51.1125L116.318 72.5025C116.314 72.9792 115.922 73.3671 115.445 73.3671C115.125 73.3671 114.917 73.2023 114.821 73.1042C114.725 73.0061 114.565 72.7937 114.572 72.4741L115.046 51.559C115.073 50.349 114.623 49.2066 113.776 48.3413C112.93 47.4762 111.798 47 110.589 47C108.216 47 106.26 48.8561 106.136 51.2252L104.874 75.3631C104.551 81.5372 107.726 87.2248 113.159 90.2063C114.956 91.1929 116.055 93.1955 115.957 95.308L114.234 132.363C114.19 133.327 114.935 134.145 115.899 134.19C116.868 134.231 117.681 133.489 117.726 132.525L119.449 95.4704C119.608 92.035 117.8 88.7655 114.841 87.1413C110.594 84.8113 108.113 80.3679 108.365 75.5456L109.627 51.4076C109.654 50.8963 110.076 50.4956 110.589 50.4956C110.941 50.4956 111.171 50.6769 111.277 50.785C111.382 50.8933 111.558 51.1273 111.551 51.4797L111.077 72.3946C111.05 73.5802 111.492 74.7 112.321 75.5479C113.149 76.396 114.259 76.863 115.445 76.863C117.83 76.863 119.79 74.9225 119.814 72.5376L120.03 51.1476C120.033 50.7882 120.328 50.4959 120.688 50.4959C121.048 50.4959 121.343 50.7882 121.347 51.1476L121.562 72.5376C121.586 74.9225 123.546 76.863 125.931 76.863C127.117 76.863 128.226 76.396 129.055 75.5481C129.884 74.7 130.326 73.5805 130.299 72.3949L129.828 51.5987C129.822 51.3061 129.931 51.0295 130.135 50.8203C130.34 50.6109 130.614 50.4959 130.906 50.4959C131.481 50.4959 131.953 50.9447 131.983 51.5178L133.239 75.5458C133.492 80.3711 131.011 84.8102 126.766 87.1309C123.806 88.7495 121.996 92.0148 122.155 95.4497L125.064 158.04C125.12 159.23 124.692 160.357 123.861 161.212C123.03 162.067 121.922 162.533 120.72 162.503C119.591 162.482 118.535 162.007 117.746 161.165C116.928 160.293 116.491 159.106 116.546 157.911L117.401 139.532C117.445 138.567 116.7 137.749 115.736 137.704C114.762 137.661 113.954 138.405 113.909 139.369L113.054 157.748C112.955 159.881 113.736 161.998 115.195 163.556C116.635 165.093 118.575 165.96 120.656 165.999C120.703 166 120.75 166 120.798 166C122.887 166 124.91 165.148 126.367 163.649C127.858 162.117 128.656 160.013 128.556 157.877L125.648 95.2875C125.55 93.178 126.647 91.1806 128.443 90.1984Z" fill="#0463CA"/>
</g>
<defs>
<clipPath id="clip0">
<rect width="119" height="119" fill="white" transform="translate(41 47)"/>
</clipPath>
</defs>
</svg>
