<svg width="200" height="200" viewBox="0 0 200 200" fill="none" xmlns="http://www.w3.org/2000/svg">
<circle cx="100" cy="100" r="100" fill="#B0D6F5"/>
<g clip-path="url(#clip0)">
<path d="M153.083 124.164C150.994 121.094 147.45 120.344 143.6 122.156L141.56 123.054C144.777 116.196 145.176 108.552 143.575 101.331C141.735 93.0372 137.292 85.0029 130.369 77.451C129.757 76.7832 128.719 76.7381 128.051 77.3504C127.384 77.9625 127.339 79 127.951 79.6681C134.48 86.7897 138.659 94.3171 140.372 102.041C142.176 110.177 141.127 118.567 136.522 125.272L116.103 134.263L116.12 131.957C116.12 131.898 116.118 131.84 116.112 131.782C115.64 127.043 112.017 123.266 107.301 122.599C107.287 122.597 107.273 122.595 107.259 122.594L89.1115 120.504C82.1332 119.511 80.3359 115.329 70.885 112.944C70.2321 107.403 71.1025 101.504 73.4882 95.5896C77.0811 86.6825 84.1102 78.0287 93.8547 70.4965C97.4866 73.0716 113.69 73.3921 117.316 70.0702C119.174 71.4809 120.947 72.9347 122.598 74.4062C122.911 74.6849 123.301 74.8219 123.689 74.8219C124.14 74.8219 124.59 74.6366 124.914 74.2728C125.517 73.5964 125.457 72.5596 124.78 71.9569C122.97 70.3441 121.023 68.7526 118.98 67.2146C119.459 65.1851 118.789 62.8096 117.022 61.3956C122.158 53.6055 123.651 48.5067 121.588 45.8353C120.171 44.0002 118.408 44.8614 117.655 45.2294C116.378 45.8524 115.683 45.8852 114.508 45.1169C112.268 43.6511 109.914 43.6038 107.601 45.1169C106.412 45.895 105.476 45.895 104.287 45.1169C102.046 43.6511 99.6927 43.6038 97.3798 45.1169C96.192 45.8944 95.4935 45.8462 94.2375 45.2219C93.4854 44.8481 91.7243 43.9726 90.298 45.808C88.2809 48.4041 89.6304 53.3421 94.4199 60.8674C94.1266 61.026 93.847 61.2121 93.586 61.4247C91.6812 59.4131 88.5603 57.3151 84.047 57.8191C80.3035 58.238 77.5431 57.001 75.8863 55.8897C75.1338 55.3857 74.1149 55.5865 73.6104 56.3386C73.106 57.0911 73.307 58.11 74.0593 58.6145C76.1713 60.0304 79.6814 61.6067 84.411 61.0793C87.8979 60.6882 90.2639 62.4701 91.7367 64.2836C91.7166 64.3536 91.698 64.424 91.6807 64.4945C90.4244 64.5141 88.5469 64.6314 86.4793 65.0615C81.5067 66.0959 77.8155 68.4591 75.8045 71.8961C75.3471 72.6779 75.61 73.6828 76.3918 74.1405C77.1739 74.5979 78.1786 74.3347 78.636 73.5529C81.6272 68.4409 88.9284 67.8157 91.8284 67.7766C91.8408 67.8127 91.8555 67.8483 91.8686 67.8842C81.52 75.8671 74.3153 84.7695 70.446 94.3617C68.0004 100.425 67.0234 106.499 67.5193 112.272C65.9463 112.039 64.3551 111.914 62.7563 111.903V110.911C62.7563 108.286 60.6208 106.151 57.9961 106.151H50.4658C47.841 106.151 45.7056 108.286 45.7056 110.911V149.114C45.7056 151.739 47.841 153.875 50.4658 153.875H57.9958C60.6206 153.875 62.7561 151.739 62.7561 149.114V148.647L79.1822 154.761C81.3896 155.582 83.7031 155.999 86.0584 155.999H110.533C114.275 155.999 117.924 154.94 121.084 152.938C153.735 132.24 151.752 133.527 151.941 133.36C154.571 131.026 155.062 127.072 153.083 124.164ZM114.238 68.1264C108.239 69.641 102.407 69.641 96.407 68.1264C93.8326 67.4756 94.5785 62.884 97.3453 63.5779C102.713 64.9254 107.931 64.9254 113.3 63.5779C116.018 62.8954 116.854 67.4653 114.238 68.1264ZM92.7393 48.1411C92.7522 48.1475 92.7651 48.1541 92.7773 48.1602C94.9974 49.2636 96.9428 49.3235 99.176 47.8625C101.971 46.0331 102.274 48.9663 105.944 48.9663C107.71 48.9663 108.685 48.3284 109.397 47.8625C110.586 47.0841 111.523 47.0846 112.712 47.8625C114.955 49.3303 116.854 49.2579 119.138 48.156C119.476 49.3727 118.712 52.9998 113.848 60.2417C111.432 60.2006 107.927 62.573 98.0041 60.3647C93.1505 53.0291 92.4 49.3668 92.7393 48.1411ZM149.852 130.826L119.329 150.168C116.694 151.837 113.653 152.72 110.534 152.72H86.0586C84.0953 152.72 82.1668 152.372 80.3267 151.687L62.7561 145.147V127.482C62.7561 126.576 62.0217 125.842 61.1159 125.842C60.21 125.842 59.4757 126.576 59.4757 127.482V149.115C59.4757 149.931 58.8118 150.595 57.9961 150.595H50.4658C49.6499 150.595 48.9862 149.931 48.9862 149.115V110.912C48.9862 110.096 49.6499 109.432 50.4658 109.432H57.9958C58.8118 109.432 59.4755 110.096 59.4755 110.912V119.814C59.4755 120.72 60.2098 121.454 61.1157 121.454C62.0215 121.454 62.7558 120.72 62.7558 119.814V115.185C76.3251 115.288 79.376 122.44 88.6725 123.755C88.6865 123.758 88.7005 123.759 88.7145 123.761L106.861 125.85C110.039 126.309 112.484 128.839 112.838 132.025L112.815 135.145H95.8919C94.986 135.145 94.2515 135.879 94.2515 136.785C94.2515 137.691 94.9858 138.426 95.8919 138.426H114.444C114.651 138.426 114.89 138.38 115.099 138.289C115.132 138.274 144.906 125.165 144.941 125.15C147.087 124.196 149.044 124.06 150.371 126.01C151.402 127.525 151.174 129.574 149.852 130.826Z" fill="#0463CA"/>
<path d="M105.755 118.423C106.661 118.423 107.395 117.689 107.395 116.783V114.064C112 113.316 114.687 109.589 115.271 106.112C116.002 101.768 113.726 97.9905 109.475 96.4879C108.724 96.2223 108.033 95.9683 107.395 95.7231V85.2642C109.335 85.586 110.5 86.5903 110.585 86.6653C111.252 87.2713 112.283 87.2264 112.894 86.5636C113.508 85.8977 113.466 84.86 112.801 84.2457C112.685 84.139 110.676 82.3301 107.395 81.9519V79.6192C107.395 78.7131 106.661 77.9788 105.754 77.9788C104.849 77.9788 104.114 78.7131 104.114 79.6192V82.0845C103.719 82.1602 103.314 82.2564 102.897 82.3818C100.115 83.2198 98.035 85.6057 97.4691 88.608C96.9557 91.3326 97.8195 93.9528 99.7233 95.446C100.816 96.3032 102.192 97.0881 104.114 97.9272V110.899C102.217 110.819 101.05 110.463 99.0126 109.13C98.2546 108.635 97.2379 108.847 96.7419 109.605C96.246 110.363 96.4584 111.38 97.2166 111.876C99.8944 113.627 101.684 114.084 104.114 114.179V116.783C104.114 117.689 104.849 118.423 105.755 118.423ZM101.748 92.8647C100.812 92.1301 100.407 90.7319 100.693 89.2157C100.958 87.8096 101.925 86.1012 103.844 85.5232C103.935 85.4957 104.025 85.472 104.114 85.448V94.3084C103.132 93.818 102.362 93.3462 101.748 92.8647ZM108.382 99.581C112.464 101.024 112.211 104.528 112.036 105.568C111.674 107.721 110.094 110.019 107.395 110.711V99.2255C107.714 99.3423 108.04 99.4602 108.382 99.581Z" fill="#0463CA"/>
</g>
<defs>
<clipPath id="clip0">
<rect width="112" height="112" fill="white" transform="translate(44 44)"/>
</clipPath>
</defs>
</svg>
