<svg width="64" height="64" viewBox="0 0 64 64" fill="none" xmlns="http://www.w3.org/2000/svg">
<circle cx="32" cy="32" r="32" fill="#B0D6F5"/>
<path d="M44.7217 25.3282C44.7433 25.6199 44.7433 25.9099 44.7433 26.1999C44.7433 35.0749 37.9883 45.3016 25.6433 45.3016C21.84 45.3016 18.3067 44.1999 15.3333 42.2866C15.8733 42.3482 16.3933 42.3699 16.955 42.3699C20.0933 42.3699 22.9817 41.3099 25.29 39.5016C22.3383 39.4399 19.865 37.5066 19.0117 34.8466C19.4267 34.9082 19.8433 34.9499 20.28 34.9499C20.8817 34.9499 21.4867 34.8666 22.0483 34.7216C18.97 34.0982 16.665 31.3966 16.665 28.1332V28.0499C17.56 28.5482 18.5983 28.8599 19.6983 28.9016C17.89 27.6982 16.705 25.6399 16.705 23.3116C16.705 22.0649 17.0367 20.9216 17.6183 19.9249C20.9233 23.9966 25.8917 26.6582 31.4617 26.9499C31.3583 26.4499 31.295 25.9316 31.295 25.4116C31.295 21.7116 34.2883 18.6982 38.0083 18.6982C39.9417 18.6982 41.6867 19.5082 42.9133 20.8182C44.43 20.5266 45.8833 19.9649 47.1733 19.1966C46.675 20.7549 45.6133 22.0649 44.2217 22.8966C45.5733 22.7499 46.8833 22.3766 48.0867 21.8566C47.1733 23.1866 46.0317 24.3716 44.7217 25.3282Z" fill="#0463CA"/>
</svg>
