<svg width="64" height="64" viewBox="0 0 64 64" fill="none" xmlns="http://www.w3.org/2000/svg">
<circle cx="32" cy="32" r="32" fill="#B0D6F5"/>
<path d="M47.9883 24.0052C47.605 22.5752 46.48 21.4468 45.0517 21.0618C42.4417 20.3452 32 20.3335 32 20.3335C32 20.3335 21.56 20.3218 18.9483 21.0068C17.5483 21.3885 16.3917 22.5418 16.005 23.9702C15.3167 26.5802 15.31 31.9935 15.31 31.9935C15.31 31.9935 15.3033 37.4335 15.9867 40.0168C16.37 41.4452 17.495 42.5735 18.925 42.9585C21.5617 43.6752 31.975 43.6868 31.975 43.6868C31.975 43.6868 42.4167 43.6985 45.0267 43.0152C46.4533 42.6318 47.5833 41.5052 47.9717 40.0768C48.6617 37.4685 48.6667 32.0568 48.6667 32.0568C48.6667 32.0568 48.7 26.6152 47.9883 24.0052ZM28.66 37.0085L28.6683 27.0085L37.3467 32.0168L28.66 37.0085Z" fill="#0463CA"/>
</svg>
