<svg width="120" height="120" viewBox="0 0 120 120" fill="none" xmlns="http://www.w3.org/2000/svg">
<path d="M59.995 36.8848C47.225 36.8848 36.88 47.2348 36.88 59.9998C36.88 72.7698 47.225 83.1198 59.995 83.1198C72.755 83.1198 83.11 72.7698 83.11 59.9998C83.11 47.2348 72.755 36.8848 59.995 36.8848ZM59.995 75.0198C51.7 75.0198 44.975 68.2948 44.975 60.0048C44.975 51.7098 51.7 44.9898 59.995 44.9898C68.29 44.9898 75.005 51.7098 75.005 60.0048C75.005 68.2948 68.29 75.0198 59.995 75.0198Z" fill="white"/>
<path d="M84.0301 41.4245C87.0069 41.4245 89.4201 39.0113 89.4201 36.0345C89.4201 33.0577 87.0069 30.6445 84.0301 30.6445C81.0533 30.6445 78.6401 33.0577 78.6401 36.0345C78.6401 39.0113 81.0533 41.4245 84.0301 41.4245Z" fill="white"/>
<path d="M102.665 30.5549C100.32 24.5099 95.5449 19.7299 89.4999 17.3949C86.0049 16.0799 82.3099 15.3749 78.5699 15.2949C73.7549 15.0849 72.2299 15.0249 60.0199 15.0249C47.8099 15.0249 46.2449 15.0249 41.4699 15.2949C37.7399 15.3699 34.0449 16.0749 30.5499 17.3949C24.4999 19.7299 19.7249 24.5099 17.3849 30.5549C16.0699 34.0549 15.3649 37.7449 15.2899 41.4849C15.0749 46.2949 15.0099 47.8199 15.0099 60.0349C15.0099 72.2449 15.0099 73.7999 15.2899 78.5849C15.3649 82.3249 16.0699 86.0149 17.3849 89.5199C19.7299 95.5599 24.5049 100.34 30.5549 102.68C34.0349 104.04 37.7299 104.81 41.4799 104.93C46.2949 105.14 47.8199 105.205 60.0299 105.205C72.2399 105.205 73.8049 105.205 78.5799 104.93C82.3149 104.855 86.0099 104.145 89.5099 102.835C95.5549 100.49 100.33 95.7149 102.675 89.6699C103.99 86.1699 104.695 82.4799 104.77 78.7399C104.985 73.9299 105.05 72.4049 105.05 60.1899C105.05 47.9749 105.05 46.4249 104.77 41.6399C104.705 37.8499 104.005 34.0949 102.665 30.5549ZM96.5749 78.2149C96.5399 81.0949 96.0199 83.9499 95.0199 86.6549C93.4949 90.5899 90.3899 93.6999 86.4599 95.2099C83.7849 96.2049 80.9649 96.7249 78.1099 96.7649C73.3599 96.9849 72.0199 97.0399 59.8399 97.0399C47.6499 97.0399 46.4049 97.0399 41.5649 96.7649C38.7199 96.7299 35.8899 96.2049 33.2199 95.2099C29.2749 93.7049 26.1499 90.5949 24.6249 86.6549C23.6449 83.9849 23.1149 81.1599 23.0699 78.3099C22.8549 73.5599 22.8049 72.2199 22.8049 60.0399C22.8049 47.8549 22.8049 46.6099 23.0699 41.7649C23.1049 38.8849 23.6249 36.0349 24.6249 33.3299C26.1499 29.3849 29.2749 26.2799 33.2199 24.7699C35.8899 23.7799 38.7199 23.2549 41.5649 23.2149C46.3199 22.9999 47.6549 22.9399 59.8399 22.9399C72.0249 22.9399 73.2749 22.9399 78.1099 23.2149C80.9649 23.2499 83.7849 23.7749 86.4599 24.7699C90.3899 26.2849 93.4949 29.3949 95.0199 33.3299C95.9999 35.9999 96.5299 38.8249 96.5749 41.6749C96.7899 46.4299 96.8449 47.7649 96.8449 59.9499C96.8449 72.1299 96.8449 73.4399 96.6299 78.2199H96.5749V78.2149Z" fill="white"/>
</svg>
