<svg width="64" height="64" viewBox="0 0 64 64" fill="none" xmlns="http://www.w3.org/2000/svg">
<circle cx="32" cy="32" r="32" fill="#B0D6F5"/>
<path d="M31.9983 24.2949C27.7417 24.2949 24.2933 27.7449 24.2933 31.9999C24.2933 36.2566 27.7417 39.7066 31.9983 39.7066C36.2517 39.7066 39.7033 36.2566 39.7033 31.9999C39.7033 27.7449 36.2517 24.2949 31.9983 24.2949ZM31.9983 37.0066C29.2333 37.0066 26.9917 34.7649 26.9917 32.0016C26.9917 29.2366 29.2333 26.9966 31.9983 26.9966C34.7633 26.9966 37.0017 29.2366 37.0017 32.0016C37.0017 34.7649 34.7633 37.0066 31.9983 37.0066Z" fill="#0463CA"/>
<path d="M40.01 25.8082C41.0023 25.8082 41.8067 25.0038 41.8067 24.0115C41.8067 23.0192 41.0023 22.2148 40.01 22.2148C39.0177 22.2148 38.2133 23.0192 38.2133 24.0115C38.2133 25.0038 39.0177 25.8082 40.01 25.8082Z" fill="#0463CA"/>
<path d="M46.2217 22.185C45.44 20.17 43.8483 18.5766 41.8333 17.7983C40.6683 17.36 39.4367 17.125 38.19 17.0983C36.585 17.0283 36.0767 17.0083 32.0067 17.0083C27.9367 17.0083 27.415 17.0083 25.8233 17.0983C24.58 17.1233 23.3483 17.3583 22.1833 17.7983C20.1667 18.5766 18.575 20.17 17.795 22.185C17.3567 23.3516 17.1217 24.5816 17.0967 25.8283C17.025 27.4316 17.0033 27.94 17.0033 32.0116C17.0033 36.0816 17.0033 36.6 17.0967 38.195C17.1217 39.4416 17.3567 40.6716 17.795 41.84C18.5767 43.8533 20.1683 45.4466 22.185 46.2266C23.345 46.68 24.5767 46.9366 25.8267 46.9766C27.4317 47.0466 27.94 47.0683 32.01 47.0683C36.08 47.0683 36.6017 47.0683 38.1933 46.9766C39.4383 46.9516 40.67 46.715 41.8367 46.2783C43.8517 45.4966 45.4433 43.905 46.225 41.89C46.6633 40.7233 46.8983 39.4933 46.9233 38.2466C46.995 36.6433 47.0167 36.135 47.0167 32.0633C47.0167 27.9916 47.0167 27.475 46.9233 25.88C46.9017 24.6166 46.6683 23.365 46.2217 22.185ZM44.1917 38.0716C44.18 39.0316 44.0067 39.9833 43.6733 40.885C43.165 42.1966 42.13 43.2333 40.82 43.7366C39.9283 44.0683 38.9883 44.2416 38.0367 44.255C36.4533 44.3283 36.0067 44.3466 31.9467 44.3466C27.8833 44.3466 27.4683 44.3466 25.855 44.255C24.9067 44.2433 23.9633 44.0683 23.0733 43.7366C21.7583 43.235 20.7167 42.1983 20.2083 40.885C19.8817 39.995 19.705 39.0533 19.69 38.1033C19.6183 36.52 19.6017 36.0733 19.6017 32.0133C19.6017 27.9516 19.6017 27.5366 19.69 25.9216C19.7017 24.9616 19.875 24.0116 20.2083 23.11C20.7167 21.795 21.7583 20.76 23.0733 20.2566C23.9633 19.9266 24.9067 19.7516 25.855 19.7383C27.44 19.6666 27.885 19.6466 31.9467 19.6466C36.0083 19.6466 36.425 19.6466 38.0367 19.7383C38.9883 19.75 39.9283 19.925 40.82 20.2566C42.13 20.7616 43.165 21.7983 43.6733 23.11C44 24 44.1767 24.9416 44.1917 25.8916C44.2633 27.4766 44.2817 27.9216 44.2817 31.9833C44.2817 36.0433 44.2817 36.48 44.21 38.0733H44.1917V38.0716Z" fill="#0463CA"/>
</svg>
