<svg width="40" height="40" viewBox="0 0 40 40" fill="none" xmlns="http://www.w3.org/2000/svg">
<path d="M20 3.3335C10.81 3.3335 3.33334 10.8102 3.33334 20.0002C3.33334 29.1902 10.81 36.6668 20 36.6668C22.4433 36.6668 24.935 36.0485 27.4033 34.8268L25.9283 31.8385C23.9217 32.8302 21.9267 33.3335 20 33.3335C12.6483 33.3335 6.66668 27.3518 6.66668 20.0002C6.66668 12.6485 12.6483 6.66683 20 6.66683C27.3517 6.66683 33.3333 12.6485 33.3333 20.0002V21.6668C33.3333 22.8202 32.8117 25.0002 30.8333 25.0002C28.5067 25.0002 28.3433 21.9685 28.3333 21.6668V13.3335H25V13.3752C23.6033 12.3185 21.8833 11.6668 20 11.6668C15.405 11.6668 11.6667 15.4052 11.6667 20.0002C11.6667 24.5952 15.405 28.3335 20 28.3335C22.4167 28.3335 24.58 27.2818 26.1033 25.6318C26.9767 27.1152 28.45 28.3335 30.8333 28.3335C34.6217 28.3335 36.6667 24.8985 36.6667 21.6668V20.0002C36.6667 10.8102 29.19 3.3335 20 3.3335ZM20 25.0002C17.2433 25.0002 15 22.7568 15 20.0002C15 17.2435 17.2433 15.0002 20 15.0002C22.7567 15.0002 25 17.2435 25 20.0002C25 22.7568 22.7567 25.0002 20 25.0002Z" fill="#444444"/>
</svg>
