<svg width="200" height="200" viewBox="0 0 200 200" fill="none" xmlns="http://www.w3.org/2000/svg">
<circle cx="100" cy="100" r="100" fill="#B0D6F5"/>
<g clip-path="url(#clip0)">
<path d="M60.9674 90.3057C61.7847 90.3057 62.4469 89.6433 62.4469 88.8262V84.8728C62.4469 84.0557 61.7847 83.3933 60.9674 83.3933C60.1501 83.3933 59.4879 84.0557 59.4879 84.8728V88.8262C59.4879 89.6433 60.1501 90.3057 60.9674 90.3057Z" fill="#0463CA"/>
<path d="M59.4879 99.1046C59.4879 99.9217 60.1501 100.584 60.9674 100.584C61.7847 100.584 62.4469 99.9217 62.4469 99.1046V95.1512C62.4469 94.3342 61.7847 93.6718 60.9674 93.6718C60.1501 93.6718 59.4879 94.3342 59.4879 95.1512V99.1046Z" fill="#0463CA"/>
<path d="M123.295 118.498C122.924 118.34 122.506 118.34 122.135 118.498C121.895 118.601 116.234 121.082 116.234 127.176V136.068C116.234 136.885 116.897 137.547 117.714 137.547H127.717C128.534 137.547 129.196 136.885 129.196 136.068V127.176C129.196 121.082 123.536 118.601 123.295 118.498ZM126.237 134.588H119.193V127.176C119.193 123.974 121.579 122.192 122.714 121.525C123.844 122.192 126.237 123.982 126.237 127.176V134.588Z" fill="#0463CA"/>
<path d="M78.8647 118.498C78.494 118.34 78.0756 118.34 77.705 118.498C77.4641 118.601 71.804 121.082 71.804 127.176V136.068C71.804 136.885 72.4662 137.547 73.2834 137.547H83.2862C84.1035 137.547 84.7657 136.885 84.7657 136.068V127.176C84.7657 121.082 79.1055 118.601 78.8647 118.498ZM81.8067 134.588H74.7629V127.176C74.7629 123.974 77.1485 122.192 78.2833 121.525C79.4137 122.192 81.8067 123.982 81.8067 127.176V134.588Z" fill="#0463CA"/>
<path d="M140.033 90.3057C140.85 90.3057 141.512 89.6433 141.512 88.8262V84.8728C141.512 84.0557 140.85 83.3933 140.033 83.3933C139.215 83.3933 138.553 84.0557 138.553 84.8728V88.8262C138.553 89.6433 139.216 90.3057 140.033 90.3057Z" fill="#0463CA"/>
<path d="M138.553 99.1046C138.553 99.9217 139.215 100.584 140.033 100.584C140.85 100.584 141.512 99.9217 141.512 99.1046V95.1512C141.512 94.3342 140.85 93.6718 140.033 93.6718C139.215 93.6718 138.553 94.3342 138.553 95.1512V99.1046Z" fill="#0463CA"/>
<path d="M136.577 108.988C136.577 109.805 137.239 110.467 138.056 110.467H142.009C142.827 110.467 143.489 109.805 143.489 108.988C143.489 108.171 142.827 107.508 142.009 107.508H138.056C137.239 107.508 136.577 108.171 136.577 108.988Z" fill="#0463CA"/>
<path d="M57.5111 108.988C57.5111 109.805 58.1733 110.467 58.9906 110.467H62.944C63.7613 110.467 64.4235 109.805 64.4235 108.988C64.4235 108.171 63.7613 107.508 62.944 107.508H58.9906C58.1735 107.508 57.5111 108.171 57.5111 108.988Z" fill="#0463CA"/>
<path d="M74.8037 106.909H126.196C127.013 106.909 127.675 106.247 127.675 105.43C127.675 104.613 127.013 103.95 126.196 103.95H74.8037C73.9864 103.95 73.3242 104.613 73.3242 105.43C73.3242 106.247 73.9866 106.909 74.8037 106.909Z" fill="#0463CA"/>
<path d="M149.521 71.5336H148.826V69.6529C148.826 65.2399 145.557 61.5769 141.315 60.9543V58.3861C141.315 57.569 140.652 56.9066 139.835 56.9066C139.018 56.9066 138.356 57.569 138.356 58.3861V61.0223C134.307 61.8077 131.24 65.3782 131.24 69.6531V71.5338H130.545C129.728 71.5338 129.066 72.1963 129.066 73.0133V78.9433C129.066 79.7604 129.728 80.4228 130.545 80.4228H131.24V96.2418H127.676V91.7912C127.676 90.9742 127.014 90.3117 126.196 90.3117H124.711V85.8612C124.711 73.0082 114.643 62.4644 101.98 61.697V60.0224C102.872 59.7752 103.689 59.3024 104.361 58.6303C105.2 57.7915 105.732 56.7287 105.899 55.5563C106.014 54.7473 105.451 53.9983 104.642 53.8833C103.835 53.7681 103.084 54.3307 102.969 55.1397C102.893 55.6725 102.652 56.1558 102.269 56.5379C101.802 57.0052 101.181 57.2625 100.52 57.2625C99.8595 57.2625 99.2383 57.0052 98.7712 56.5379C97.8065 55.5733 97.8065 54.004 98.771 53.0396C99.1533 52.6573 99.6368 52.4154 100.169 52.3397C100.978 52.2247 101.541 51.4757 101.426 50.6669C101.311 49.8577 100.562 49.2959 99.7528 49.4103C98.581 49.5768 97.5179 50.1084 96.6788 50.9474C95.6528 51.9736 95.0876 53.3379 95.0876 54.7889C95.0876 56.24 95.6528 57.6043 96.6788 58.6305C97.341 59.2927 98.1446 59.7616 99.0211 60.0117V61.6972C86.3576 62.4645 76.29 73.0084 76.29 85.8614V90.3119H74.8046C73.9873 90.3119 73.3251 90.9744 73.3251 91.7914V96.2419H69.7611V80.423H70.4559C71.2731 80.423 71.9353 79.7606 71.9353 78.9435V73.0131C71.9353 72.1961 71.2731 71.5336 70.4559 71.5336H69.7611V69.6529C69.7611 65.378 66.694 61.8077 62.6453 61.0221V58.3861C62.6453 57.569 61.9831 56.9066 61.1658 56.9066C60.3486 56.9066 59.6863 57.569 59.6863 58.3861V60.9543C55.4433 61.5769 52.1752 65.2399 52.1752 69.6529V71.5336H51.4795C50.6622 71.5336 50 72.1961 50 73.0131V78.9431C50 79.7602 50.6622 80.4226 51.4795 80.4226H52.1743V123.514C52.1743 124.331 52.8365 124.993 53.6538 124.993C54.471 124.993 55.1332 124.331 55.1332 123.514V80.4226H66.8011V146.646H55.1332V130.457C55.1332 129.64 54.471 128.977 53.6538 128.977C52.8365 128.977 52.1743 129.64 52.1743 130.457V148.125C52.1743 148.942 52.8365 149.605 53.6538 149.605H147.346C148.163 149.605 148.826 148.942 148.826 148.125V130.457C148.826 129.64 148.163 128.977 147.346 128.977C146.529 128.977 145.867 129.64 145.867 130.457V146.646H134.199V80.4226H145.867V123.514C145.867 124.331 146.529 124.993 147.346 124.993C148.163 124.993 148.826 124.331 148.826 123.514V80.4226H149.52C150.338 80.4226 151 79.7602 151 78.9431V73.0131C151 72.1961 150.338 71.5336 149.521 71.5336ZM55.1332 69.6529C55.1332 66.4359 57.7504 63.8188 60.9672 63.8188C64.184 63.8188 66.8011 66.4359 66.8011 69.6529V71.5336H55.1332V69.6529ZM52.959 77.4636V74.4926H68.9756V77.4636H52.959ZM100.5 64.6094C111.721 64.6094 120.937 73.351 121.699 84.3817H79.3007C80.0629 73.351 89.2791 64.6094 100.5 64.6094ZM79.2484 87.3407H121.752V90.3117H79.2484V87.3407ZM69.7603 99.2005H97.0125C97.8298 99.2005 98.492 98.5381 98.492 97.721C98.492 96.904 97.8298 96.2416 97.0125 96.2416H76.2833V93.2705H124.717V96.2416H103.957C103.14 96.2416 102.478 96.904 102.478 97.721C102.478 98.5381 103.14 99.2005 103.957 99.2005H131.24V146.646H112.653V129.149C112.653 124.206 110.647 119.699 106.853 116.115C104.024 113.444 101.199 112.223 101.08 112.173C100.709 112.015 100.291 112.015 99.92 112.173C99.8011 112.224 96.9755 113.444 94.1471 116.115C90.3525 119.699 88.3467 124.206 88.3467 129.149V146.646H69.7601V99.2005H69.7603ZM109.694 146.646H91.3056V129.149C91.3056 125.014 92.9212 121.375 96.1081 118.334C97.8482 116.673 99.6162 115.64 100.501 115.178C102.604 116.276 109.694 120.61 109.694 129.149V146.646ZM134.199 69.6529C134.199 66.4359 136.816 63.8188 140.033 63.8188C143.249 63.8188 145.867 66.4359 145.867 69.6529V71.5336H134.199V69.6529ZM132.024 77.4636V74.4926H148.041V77.4636H132.024Z" fill="#0463CA"/>
</g>
<defs>
<clipPath id="clip0">
<rect width="101" height="101" fill="white" transform="translate(50 49)"/>
</clipPath>
</defs>
</svg>
