<svg width="40" height="40" viewBox="0 0 40 40" fill="none" xmlns="http://www.w3.org/2000/svg">
<path d="M20 23.3333C23.6767 23.3333 26.6667 20.3433 26.6667 16.6667C26.6667 12.99 23.6767 10 20 10C16.3233 10 13.3333 12.99 13.3333 16.6667C13.3333 20.3433 16.3233 23.3333 20 23.3333ZM20 13.3333C21.8383 13.3333 23.3333 14.8283 23.3333 16.6667C23.3333 18.505 21.8383 20 20 20C18.1617 20 16.6667 18.505 16.6667 16.6667C16.6667 14.8283 18.1617 13.3333 20 13.3333Z" fill="#444444"/>
<path d="M19.0333 36.3568C19.3233 36.5635 19.6617 36.6668 20 36.6668C20.3383 36.6668 20.6767 36.5635 20.9667 36.3568C21.4733 35.9985 33.3817 27.4002 33.3333 16.6668C33.3333 9.31516 27.3517 3.3335 20 3.3335C12.6483 3.3335 6.66665 9.31516 6.66665 16.6585C6.61832 27.4002 18.5267 35.9985 19.0333 36.3568ZM20 6.66683C25.515 6.66683 30 11.1518 30 16.6752C30.035 24.0718 22.6867 30.7135 20 32.8918C17.315 30.7118 9.96498 24.0685 9.99998 16.6668C9.99998 11.1518 14.485 6.66683 20 6.66683Z" fill="#444444"/>
</svg>
